<?xml version="1.0" standalone="no"?>
<svg xmlns:xlink="http://www.w3.org/1999/xlink" id="wave" style="transform:rotate(0deg); transition: 0.3s" viewBox="0 0 1440 480" version="1.1" xmlns="http://www.w3.org/2000/svg"><defs><linearGradient id="sw-gradient-0" x1="0" x2="0" y1="1" y2="0"><stop stop-color="rgba(33.835, 175.107, 209.882, 1)" offset="0%"/><stop stop-color="rgba(45.195, 171.885, 218.989, 1)" offset="100%"/></linearGradient></defs><path style="transform:translate(0, 0px); opacity:1" fill="url(#sw-gradient-0)" d="M0,384L60,376C120,368,240,352,360,296C480,240,600,144,720,88C840,32,960,16,1080,8C1200,0,1320,0,1440,72C1560,144,1680,288,1800,352C1920,416,2040,400,2160,392C2280,384,2400,384,2520,392C2640,400,2760,416,2880,368C3000,320,3120,208,3240,144C3360,80,3480,64,3600,48C3720,32,3840,16,3960,24C4080,32,4200,64,4320,104C4440,144,4560,192,4680,192C4800,192,4920,144,5040,152C5160,160,5280,224,5400,280C5520,336,5640,384,5760,336C5880,288,6000,144,6120,128C6240,112,6360,224,6480,288C6600,352,6720,368,6840,360C6960,352,7080,320,7200,264C7320,208,7440,128,7560,136C7680,144,7800,240,7920,232C8040,224,8160,112,8280,112C8400,112,8520,224,8580,280L8640,336L8640,480L8580,480C8520,480,8400,480,8280,480C8160,480,8040,480,7920,480C7800,480,7680,480,7560,480C7440,480,7320,480,7200,480C7080,480,6960,480,6840,480C6720,480,6600,480,6480,480C6360,480,6240,480,6120,480C6000,480,5880,480,5760,480C5640,480,5520,480,5400,480C5280,480,5160,480,5040,480C4920,480,4800,480,4680,480C4560,480,4440,480,4320,480C4200,480,4080,480,3960,480C3840,480,3720,480,3600,480C3480,480,3360,480,3240,480C3120,480,3000,480,2880,480C2760,480,2640,480,2520,480C2400,480,2280,480,2160,480C2040,480,1920,480,1800,480C1680,480,1560,480,1440,480C1320,480,1200,480,1080,480C960,480,840,480,720,480C600,480,480,480,360,480C240,480,120,480,60,480L0,480Z"/></svg>